<?xml version="1.0" encoding="utf-8"?>
<svg version="1.1" id="Layer_1" xmlns="http://www.w3.org/2000/svg" xmlns:xlink="http://www.w3.org/1999/xlink" x="0px" y="0px"
	 width="200px" height="60px" viewBox="0 0 200 60" style="enable-background:new 0 0 200 60;" xml:space="preserve">
<style type="text/css">
	.st0{fill:#FFFFFF;}
</style>
<g>
	<path class="st0" d="M73.7,43.9c-1.8,0-3.4-0.3-4.9-0.9c-1.5-0.6-2.8-1.5-3.9-2.6c-1.1-1.1-1.9-2.5-2.5-4.1
		c-0.6-1.6-0.9-3.3-0.9-5.2c0-1.9,0.3-3.6,0.9-5.2c0.6-1.6,1.5-2.9,2.6-4.1c1.1-1.1,2.4-2,3.9-2.6c1.5-0.6,3.2-0.9,5-0.9
		c2.2,0,4.1,0.4,5.8,1.2c1.7,0.8,3.1,2,4.2,3.5l-4.7,4.6c-0.7-0.9-1.4-1.6-2.2-2c-0.8-0.5-1.7-0.7-2.7-0.7c-0.8,0-1.5,0.1-2.2,0.4
		c-0.7,0.3-1.2,0.7-1.7,1.2c-0.5,0.5-0.8,1.2-1.1,1.9c-0.2,0.7-0.4,1.6-0.4,2.5c0,0.9,0.1,1.7,0.4,2.5c0.2,0.8,0.6,1.4,1.1,1.9
		c0.5,0.5,1,0.9,1.6,1.2c0.6,0.3,1.3,0.4,2.1,0.4c0.8,0,1.6-0.2,2.4-0.5c0.8-0.3,1.6-0.9,2.5-1.6l4.1,5.7c-1.3,1-2.8,1.8-4.5,2.3
		C77,43.6,75.3,43.9,73.7,43.9z M76.8,39.7v-9.3h6.4v10.3L76.8,39.7z"/>
	<path class="st0" d="M97.8,43.9c-1.8,0-3.4-0.3-4.9-0.9c-1.5-0.6-2.8-1.5-3.9-2.7c-1.1-1.2-2-2.5-2.6-4.1c-0.6-1.6-0.9-3.3-0.9-5.1
		c0-1.9,0.3-3.6,0.9-5.1c0.6-1.5,1.5-2.9,2.6-4.1c1.1-1.2,2.4-2,3.9-2.7c1.5-0.6,3.1-0.9,4.9-0.9c1.8,0,3.4,0.3,4.9,0.9
		c1.5,0.6,2.8,1.5,3.9,2.7c1.1,1.2,2,2.5,2.6,4.1c0.6,1.5,0.9,3.3,0.9,5.1c0,1.8-0.3,3.5-0.9,5.1c-0.6,1.6-1.5,2.9-2.6,4.1
		c-1.1,1.2-2.4,2-3.9,2.7C101.2,43.6,99.6,43.9,97.8,43.9z M97.8,37.2c0.7,0,1.3-0.1,1.9-0.4c0.6-0.3,1.1-0.7,1.6-1.2
		c0.4-0.5,0.8-1.2,1-1.9c0.2-0.8,0.4-1.6,0.4-2.6c0-1-0.1-1.8-0.4-2.6c-0.2-0.8-0.6-1.4-1-1.9c-0.4-0.5-1-0.9-1.6-1.2
		S98.5,25,97.8,25s-1.3,0.1-1.9,0.4s-1.1,0.7-1.6,1.2c-0.4,0.5-0.8,1.2-1,1.9c-0.2,0.8-0.4,1.6-0.4,2.6c0,1,0.1,1.8,0.4,2.6
		c0.2,0.8,0.6,1.4,1,1.9c0.4,0.5,1,0.9,1.6,1.2C96.5,37.1,97.1,37.2,97.8,37.2z"/>
	<path class="st0" d="M112.8,43.3V18.9h7.3V37h9.8v6.4H112.8z"/>
	<path class="st0" d="M132,43.3V18.9h10.5c2,0,3.8,0.4,5.3,1.1c1.5,0.7,2.6,1.8,3.4,3.2c0.8,1.4,1.2,3,1.2,4.9s-0.4,3.5-1.2,4.9
		c-0.8,1.4-2,2.4-3.4,3.2c-1.5,0.8-3.2,1.1-5.3,1.1h-6.4l3.3-3.5v9.5H132z M139.3,34.7l-3.3-3.7h5.9c1,0,1.8-0.3,2.3-0.8
		c0.5-0.5,0.7-1.2,0.7-2.1c0-0.9-0.2-1.6-0.7-2.1c-0.5-0.5-1.2-0.8-2.3-0.8h-5.9l3.3-3.7V34.7z"/>
	<path class="st0" d="M162,37.1h10.9v6.2h-18.1V18.9h17.7v6.2H162V37.1z M161.5,28h9.7v5.9h-9.7V28z"/>
</g>
<g>
	<path class="st0" d="M67.2,16.5c-1.1,0-2.1-0.3-3-0.8c-0.8-0.5-1.5-1.2-2-2.1c-0.5-0.9-0.7-1.9-0.7-3c0-1.1,0.2-2.1,0.7-3
		c0.5-0.9,1.1-1.5,1.9-2C64.9,5.2,65.8,5,66.8,5c0.9,0,1.8,0.2,2.6,0.7c0.8,0.4,1.4,1.1,1.9,1.9c0.5,0.9,0.7,1.9,0.7,3.2
		c0,0.2,0,0.3,0,0.5c0,0.2,0,0.4,0,0.5h-7.2V9.6h5.1l-1.5,0.6c0-0.4-0.1-0.8-0.2-1.1c-0.1-0.3-0.3-0.5-0.5-0.7
		c-0.2-0.2-0.5-0.3-0.8-0.3c-0.3,0-0.6,0.1-0.8,0.3c-0.2,0.2-0.4,0.4-0.5,0.7c-0.1,0.3-0.2,0.7-0.2,1.1v0.7c0,0.5,0.1,0.9,0.2,1.2
		c0.2,0.3,0.4,0.6,0.7,0.8c0.3,0.2,0.7,0.3,1.1,0.3c0.4,0,0.8-0.1,1.1-0.2c0.3-0.1,0.6-0.3,0.9-0.6l2,2.4c-0.5,0.6-1,1-1.7,1.3
		C68.9,16.4,68.1,16.5,67.2,16.5z"/>
	<path class="st0" d="M73.2,16.3V5.2h3.7v3.4l-0.6-1c0.3-0.9,0.7-1.5,1.4-2C78.3,5.2,79,5,79.9,5V9c-0.2,0-0.3,0-0.5-0.1
		c-0.1,0-0.3,0-0.4,0c-0.6,0-1.1,0.2-1.4,0.5c-0.4,0.4-0.6,1-0.6,1.9v4.9H73.2z"/>
</g>
<g>
	<path class="st0" d="M63.4,53.8h4.3v1.7h-6.1v-9.3h6V48h-4.2V53.8z M63.2,50H67v1.7h-3.8V50z"/>
	<path class="st0" d="M71.7,55.7c-0.6,0-1.2-0.1-1.8-0.3c-0.6-0.2-1-0.5-1.4-0.8l0.6-1.6c0.3,0.3,0.7,0.5,1.2,0.7
		c0.5,0.2,0.9,0.3,1.4,0.3c0.4,0,0.7,0,0.9-0.1c0.2-0.1,0.4-0.2,0.5-0.4c0.1-0.2,0.2-0.3,0.2-0.5c0-0.2-0.1-0.4-0.2-0.6
		c-0.2-0.1-0.4-0.3-0.7-0.4c-0.3-0.1-0.6-0.2-0.9-0.3c-0.3-0.1-0.7-0.2-1-0.3c-0.3-0.1-0.6-0.3-0.9-0.5c-0.3-0.2-0.5-0.5-0.7-0.8
		c-0.2-0.3-0.3-0.7-0.3-1.2c0-0.5,0.1-1,0.4-1.5c0.2-0.4,0.6-0.8,1.1-1c0.5-0.3,1.1-0.4,1.9-0.4c0.5,0,1,0.1,1.5,0.2
		c0.5,0.1,0.9,0.3,1.3,0.6l-0.6,1.6c-0.4-0.2-0.7-0.4-1.1-0.6c-0.4-0.1-0.7-0.2-1.1-0.2c-0.4,0-0.6,0-0.9,0.1
		c-0.2,0.1-0.4,0.2-0.5,0.4c-0.1,0.2-0.1,0.3-0.1,0.5c0,0.2,0.1,0.4,0.2,0.6c0.2,0.1,0.4,0.3,0.7,0.4c0.3,0.1,0.6,0.2,0.9,0.3
		c0.3,0.1,0.7,0.2,1,0.3c0.3,0.1,0.6,0.3,0.9,0.5c0.3,0.2,0.5,0.5,0.7,0.8c0.2,0.3,0.3,0.7,0.3,1.2c0,0.5-0.1,1-0.4,1.4
		c-0.2,0.4-0.6,0.8-1.1,1C73.1,55.6,72.5,55.7,71.7,55.7z"/>
	<path class="st0" d="M80.1,55.7c-0.6,0-1.2-0.1-1.7-0.4c-0.5-0.2-1-0.6-1.4-1c-0.4-0.4-0.7-0.9-0.9-1.5c-0.2-0.6-0.3-1.2-0.3-1.9
		c0-0.7,0.1-1.3,0.3-1.9c0.2-0.6,0.5-1.1,0.9-1.5c0.4-0.4,0.8-0.8,1.4-1c0.5-0.2,1.1-0.4,1.7-0.4c0.7,0,1.3,0.1,1.9,0.4
		c0.6,0.3,1,0.7,1.4,1.2L82.2,49c-0.3-0.4-0.6-0.6-0.9-0.8c-0.3-0.2-0.7-0.3-1.1-0.3c-0.4,0-0.7,0.1-1,0.2c-0.3,0.1-0.6,0.3-0.8,0.6
		c-0.2,0.3-0.4,0.6-0.5,0.9c-0.1,0.4-0.2,0.8-0.2,1.2c0,0.4,0.1,0.8,0.2,1.2c0.1,0.4,0.3,0.7,0.5,0.9c0.2,0.3,0.5,0.5,0.8,0.6
		c0.3,0.1,0.6,0.2,1,0.2c0.4,0,0.8-0.1,1.1-0.3c0.3-0.2,0.6-0.5,0.9-0.8l1.2,1.3c-0.4,0.5-0.8,1-1.4,1.2
		C81.5,55.6,80.8,55.7,80.1,55.7z"/>
	<path class="st0" d="M88.1,55.7c-1.1,0-2-0.4-2.6-1.1c-0.6-0.7-1-1.8-1-3.1v-5.2h1.8v5.1c0,0.9,0.2,1.5,0.5,1.9
		c0.3,0.4,0.7,0.6,1.3,0.6c0.6,0,1-0.2,1.3-0.6c0.3-0.4,0.5-1,0.5-1.9v-5.1h1.8v5.2c0,1.4-0.3,2.4-1,3.1
		C90.1,55.3,89.2,55.7,88.1,55.7z"/>
	<path class="st0" d="M95.3,53.8h4.3v1.7h-6.1v-9.3h6V48h-4.2V53.8z M95.2,50H99v1.7h-3.8V50z"/>
	<path class="st0" d="M101.1,55.6v-9.3h1.8v7.5h4v1.8H101.1z"/>
	<path class="st0" d="M106.9,55.6l3.5-9.3h1.8l3.5,9.3h-1.9l-2.9-8.2h0.7l-2.9,8.2H106.9z M108.7,53.6l0.5-1.6h4.1l0.5,1.6H108.7z"
		/>
	<path class="st0" d="M119.8,55.6v-9.3h3.6c0.9,0,1.6,0.2,2.3,0.6s1.2,0.9,1.5,1.6c0.4,0.7,0.6,1.5,0.6,2.5c0,0.9-0.2,1.8-0.6,2.4
		c-0.4,0.7-0.9,1.2-1.5,1.6s-1.4,0.6-2.3,0.6H119.8z M121.7,53.8h1.7c0.5,0,1-0.1,1.4-0.4c0.4-0.2,0.7-0.6,0.9-1
		c0.2-0.4,0.3-0.9,0.3-1.5c0-0.6-0.1-1.1-0.3-1.5c-0.2-0.4-0.5-0.8-0.9-1c-0.4-0.2-0.8-0.4-1.4-0.4h-1.7V53.8z"/>
	<path class="st0" d="M131,53.8h4.3v1.7h-6.1v-9.3h6V48H131V53.8z M130.9,50h3.8v1.7h-3.8V50z"/>
	<path class="st0" d="M141.6,55.6V48h-2.5v-1.8h6.9V48h-2.5v7.5H141.6z"/>
	<path class="st0" d="M148.8,53.8h4.3v1.7H147v-9.3h6V48h-4.2V53.8z M148.6,50h3.8v1.7h-3.8V50z"/>
	<path class="st0" d="M154.5,55.6v-9.3h1.5l4.7,6.7H160v-6.7h1.8v9.3h-1.5l-4.7-6.7h0.7v6.7H154.5z"/>
	<path class="st0" d="M163.7,55.6v-9.3h1.8v9.3H163.7z"/>
	<path class="st0" d="M170,55.7c-0.6,0-1.2-0.1-1.8-0.3c-0.6-0.2-1-0.5-1.4-0.8l0.6-1.6c0.3,0.3,0.7,0.5,1.2,0.7
		c0.5,0.2,0.9,0.3,1.4,0.3c0.4,0,0.7,0,0.9-0.1c0.2-0.1,0.4-0.2,0.5-0.4c0.1-0.2,0.2-0.3,0.2-0.5c0-0.2-0.1-0.4-0.2-0.6
		c-0.2-0.1-0.4-0.3-0.7-0.4c-0.3-0.1-0.6-0.2-0.9-0.3c-0.3-0.1-0.7-0.2-1-0.3c-0.3-0.1-0.6-0.3-0.9-0.5s-0.5-0.5-0.7-0.8
		c-0.2-0.3-0.3-0.7-0.3-1.2c0-0.5,0.1-1,0.4-1.5c0.2-0.4,0.6-0.8,1.1-1c0.5-0.3,1.1-0.4,1.9-0.4c0.5,0,1,0.1,1.5,0.2
		c0.5,0.1,0.9,0.3,1.3,0.6l-0.6,1.6c-0.4-0.2-0.7-0.4-1.1-0.6c-0.4-0.1-0.7-0.2-1.1-0.2c-0.4,0-0.6,0-0.9,0.1
		c-0.2,0.1-0.4,0.2-0.5,0.4c-0.1,0.2-0.1,0.3-0.1,0.5c0,0.2,0.1,0.4,0.2,0.6c0.2,0.1,0.4,0.3,0.7,0.4c0.3,0.1,0.6,0.2,0.9,0.3
		c0.3,0.1,0.7,0.2,1,0.3c0.3,0.1,0.6,0.3,0.9,0.5c0.3,0.2,0.5,0.5,0.7,0.8c0.2,0.3,0.3,0.7,0.3,1.2c0,0.5-0.1,1-0.4,1.4
		c-0.2,0.4-0.6,0.8-1.1,1C171.4,55.6,170.8,55.7,170,55.7z"/>
</g>
<g>
	<path class="st0" d="M41.3,23.5l-10.5,7.7l-4.8-12.6L44.3,5.7l15.2-0.3v50.2H41.3L41.3,23.5z"/>
</g>
</svg>
